<?xml version="1.0" encoding="UTF-8"?><svg xmlns="http://www.w3.org/2000/svg" viewBox="0 0 1424.58 862.6"><defs><style>.cls-1{fill:#fff;}.cls-2{fill:#9cbfe5;}.cls-3{fill:#2d2d2d;}</style></defs><g id="Layer_1_copy"><path class="cls-1" d="M1405.68,238.13c-6.75-32.47-16.77-59.07-29.77-79.05-24.19-37.19-53.74-42.74-69.2-42.74-6.31,0-12.67.86-18.92,2.55-17.03,4.63-35.5,20.2-36.26,50.02-.26,10.39,1.51,21.04,3.38,32.33,4.04,24.36,3.46,32.58,2.72,35.33-.19.07-.41.15-.68.24-.6.2-.92.25-1.04.26-.46-.1-3.97-1.03-11.24-8.2-6.58-6.5-13.4-15.21-19.98-23.64-18.2-23.28-38.82-49.66-71.93-49.66-8.5,0-16.81,1.88-24.7,5.58-11.38,5.34-20.46,14.3-26.27,25.73-3.72-3.01-7.62-5.84-11.65-8.45-20.17-13.05-42.6-19.94-64.86-19.94-13.15,0-26.04,2.39-38.31,7.1-19.34,7.43-37.08,18.64-52.72,33.33-12.7,11.93-20.93,27.31-23.81,44.49-.62,3.7-.97,7.43-1.06,11.17-6.88-1.23-13.56-1.87-19.77-1.87-2,0-4.02.1-5.98.3-30.72,3.08-48.48,20.94-58.68,36.77-11.85-5.8-24.65-8.72-38.27-8.72-9.37,0-19.17,1.42-29.11,4.23-16.34,4.61-38.53,16.86-52.16,48.96-17.82-30.84-40.74-37.73-57.65-37.73-4.96,0-9.98.63-14.9,1.88-19.87,5.04-32.78,21.94-34.53,45.19-.6,8-.06,16.5.51,25.53.09,1.39.17,2.74.24,4.05-14.47-11.16-30.83-21.62-50.87-21.62-11.32,0-22.13,3.49-31.27,10.08-11.78,8.5-19.29,21.82-21.16,37.51-1.13,9.43-.16,19.98,2.64,30.85-5.01-.64-10.05-.96-15.13-.96-5.65,0-11.36.42-16.96,1.24-41.11,6.03-86.31,35.44-116.45,58.54-3.25-10.29-7.01-20.92-11.25-31.82-16.63-42.73-37.29-79.86-56.69-101.87-25.44-28.86-48.49-54.47-73.12-75.59-34.14-29.28-65.09-43.52-94.62-43.52h-.19c-42.52.09-71.71,11.17-89.24,33.89-23.15,30-13.85,65.83-10.34,79.32,7.48,28.78,33.89,57.91,69.9,57.9,8.63,0,20.51-1.81,32.86-9.26,6.85,4.49,17.82,13.08,31.72,27.79,22.07,23.36,41.74,51.48,51.33,73.39,17.34,39.61-.81,93.02-12.82,128.36-7.41,21.81-12.31,36.22-10.61,51.01,2.92,25.33,15.07,45.46,34.22,56.67,15.42,9.03,30.67,9.72,38,10.05h.26c.34.03.66.04.96.06,1.19.07,2.39.11,3.57.11,38.27,0,72.91-34.37,126.26-90.45,13.98-14.7,46.26-58.49,106.86-53.93,42.45,3.2,78.29,69.19,94.64,94.14,6.16,9.41,10.24,15.62,13.04,19.28,12.79,16.7,49.37,59.38,112.77,94.93,63.13,35.4,133.07,53.35,207.88,53.35h.03c71.92,0,147.39-16.97,224.33-50.42,141.13-61.37,208.53-180.83,240.21-270.24,18-50.81,29.63-106.93,33.62-162.28,3.66-50.71.98-99.65-7.73-141.53Z"/></g><g id="Layer_3"><path class="cls-3" d="M671.02,640.33l51.9-39.52,14.03,9.48-17.3,62.89-13.24-8.95,3.87-12.62-16.09-10.88-10.26,8.29-12.9-8.72ZM713.72,640.44l6.18-20.42-16.64,13.35,10.45,7.06Z"/><path class="cls-3" d="M783.98,698.09l-14.03-5.13-7.58-48.64-14.8,40.46-13.33-4.88,21.23-58.04,17.89,6.54,6.36,40.02,12.16-33.25,13.33,4.88-21.22,58.04Z"/><path class="cls-3" d="M834.81,708.18l-32.71-6.18,2-10.6,8.73,1.65,7.47-39.52-8.73-1.65,2-10.6,32.71,6.18-2,10.6-8.73-1.65-7.47,39.52,8.73,1.65-2,10.6Z"/><path class="cls-3" d="M913.28,714.58l-15.41-.91,2.42-40.89-12.79,25.73-10.56-.63-9.66-27.06-2.42,40.89-14.58-.87,3.66-61.69,17.86,1.06,11.87,31.26,15.44-29.64,17.86,1.06-3.66,61.69Z"/><path class="cls-3" d="M923.94,714.33l18-62.7,16.92-.78,23.71,60.77-15.96.74-4.44-12.42-19.4.9-3.27,12.78-15.55.72ZM958.25,688.9l-7.24-20.06-5.36,20.65,12.6-.58Z"/><path class="cls-3" d="M1005.68,708.68l-8.54-49.28-17.99,3.12-2.01-11.61,51.28-8.88,2.01,11.61-18,3.12,8.54,49.28-15.29,2.65Z"/><path class="cls-3" d="M1089.47,684.4l-31.03,12.05-3.91-10.06,8.28-3.22-14.56-37.49-8.28,3.22-3.91-10.06,31.03-12.05,3.91,10.06-8.28,3.21,14.56,37.49,8.28-3.22,3.91,10.06Z"/><path class="cls-3" d="M1137.5,621.52c5.23,8.51,7.06,16.61,5.51,24.28-1.55,7.67-6.29,13.94-14.21,18.81-7.95,4.88-15.7,6.24-23.26,4.08-7.56-2.16-13.92-7.44-19.07-15.83-5.2-8.47-7.04-16.55-5.53-24.24,1.51-7.7,6.24-13.98,14.18-18.86,7.92-4.86,15.66-6.25,23.22-4.15,7.55,2.1,13.95,7.41,19.17,15.92ZM1123.83,629.87c-1.92-3.14-3.89-5.61-5.89-7.41-2-1.81-3.98-3.08-5.93-3.83-2.02-.74-3.93-.99-5.74-.74-1.81.25-3.48.85-5.01,1.79-1.63,1-2.92,2.19-3.89,3.58-.97,1.39-1.61,3.2-1.92,5.44-.25,2.03,0,4.39.71,7.07.72,2.67,2.04,5.58,3.96,8.72,1.98,3.23,3.95,5.72,5.9,7.46,1.95,1.74,3.92,3,5.91,3.75,2.03.77,3.96,1.02,5.78.76,1.82-.26,3.5-.86,5.03-1.8,1.56-.96,2.86-2.22,3.91-3.79,1.05-1.57,1.67-3.39,1.86-5.45.19-2.23-.03-4.55-.67-6.97-.64-2.42-1.97-5.27-4-8.58Z"/><path class="cls-3" d="M1205.81,599.91l-10.78,10.34-47.02-14.6,29.82,31.09-10.24,9.83-42.78-44.6,13.75-13.19,38.74,11.9-24.51-25.55,10.24-9.83,42.78,44.6Z"/><path class="cls-3" d="M1230.59,568.94c-2.71,3.88-5.47,7.02-8.27,9.43-2.8,2.41-5.64,4.49-8.51,6.23l-12.04-8.42.81-1.16c3.93-1.03,7.54-2.67,10.84-4.92,3.3-2.25,5.95-4.82,7.97-7.7.51-.73,1.1-1.74,1.77-3.04.67-1.3,1.09-2.43,1.26-3.4.23-1.15.22-2.28-.04-3.38-.26-1.1-.96-2.04-2.1-2.83-1.27-.89-2.65-1.11-4.14-.67-1.49.44-2.9,1.23-4.23,2.36-1.66,1.41-3.38,2.95-5.16,4.62-1.78,1.68-3.56,3.16-5.34,4.45-4.13,2.96-7.95,4.46-11.48,4.53-3.52.07-7.04-1.13-10.56-3.59-4.74-3.31-7.17-8-7.3-14.07-.13-6.07,1.91-12.1,6.11-18.11,2.11-3.01,4.51-5.8,7.21-8.35,2.7-2.55,5.39-4.64,8.09-6.27l11.56,8.09-.79,1.12c-2.93.76-5.89,2.1-8.9,4.03-3.01,1.93-5.51,4.33-7.51,7.18-.78,1.11-1.4,2.16-1.85,3.16-.46,1-.81,2.14-1.03,3.43-.19,1.05-.13,2.11.17,3.19.31,1.08.91,1.93,1.79,2.54,1.29.91,2.64,1.16,4.04.78,1.4-.39,3.33-1.68,5.78-3.88,1.58-1.43,3.1-2.81,4.56-4.13,1.47-1.32,3.14-2.66,5.03-4,3.73-2.62,7.26-4.04,10.6-4.26,3.34-.21,6.77.91,10.28,3.37,5.03,3.52,7.7,8.33,7.99,14.43.29,6.1-1.92,12.51-6.63,19.25Z"/></g><g id="Layer_1"><path class="cls-2" d="M103.14,358.28c-20.92,21.18-45.04.02-50.02-19.14-6.28-24.15-12.59-62.99,60.95-63.15,43.67-.09,93.39,55.12,137.84,105.55,45.39,51.5,95.13,202.83,61.08,205.6-22.04,1.8,90.7-107.28,159.12-117.32,68.43-10.03,121.48,75.62,100.3,90.64-30.98,21.98-41.97-32.55-129.06-11.21-49.65,12.17-146.97,158.61-190.75,155.98-9.02-.54-32.42.45-36.09-31.43-2.36-20.51,53.3-115.51,20.33-190.84-27.01-61.72-110.46-148.27-133.71-124.71Z"/><path class="cls-2" d="M757.34,459.86c-27.38-6.94-37.84-122.27,11.09-136.09,48.92-13.82,60.36,29.58,70.23,25.15,12.56-5.64,11.56-52.37,48.96-56.12,37.4-3.75,97.23,101.14,73.15,111.76-40.02,17.64-45.61-62.08-66.91-54.06-17.95,6.76-8.28,84.06-26.81,91.02-16.87,6.34-58.18-56.61-72.16-53.17-24.28,5.96,8.99,83.31-37.55,71.52Z"/><path class="cls-2" d="M1145.05,197.35c36.87-17.3,64.81,96.99,124.37,77.47,59.56-19.52,4.18-110.62,28.87-117.33,104.87-28.49,147.22,478.04-174.66,618.01-275,119.59-445.84-18.3-497.29-85.5-12.77-16.67-16.43-56.75,1.26-45.44,69.35,44.31,273.98,142.78,450.27,73.51,239.02-93.91,226.07-382.75,191.73-383.44-1.38-.03-85.13,3.51-120.26-58.62-9.13-16.14-26.18-68.39-4.29-78.66Z"/><path class="cls-2" d="M1099.05,244.85c-14.65-29.18-57.03-57.55-97.74-41.92-16.63,6.39-29.76,15.84-39.67,25.14-15.23,14.31-16.41,38.11-2.94,54.08,12.89,15.27,43.07,54.82,47.67,67.5,10.95,30.2,3.11,57.61,6.18,79.69,1.29,9.29,10.18,15.57,19.35,13.62,3.36-.71,7.34-1.79,12.07-3.37,27.26-9.1,26.72-51.23,19.19-78.89-5.54-20.38-20.67-38.33-28.25-46.38,8.12,6.75,27.11,16.59,55.47-4.43,22.77-16.88,23.33-35.86,8.68-65.04ZM1068.38,269.64c2.2,26.75-39.1,22.45-48.99,17.44-9.88-5-30.3-23.4-15.76-37.31,8.22-7.87,20.32-13.15,37.71-9.91,19.1,3.56,26.21,19.67,27.04,29.78Z"/><path class="cls-2" d="M705.49,450.53c-8.4-10.49-14.09-22.87-16.46-36.1s-13.91-85.5-46.34-77.26c-13.41,3.4,8.93,67.09-14.2,89.5-23.12,22.41-65.2-49.17-88.16-32.6-11.31,8.16-2.73,40.68,16.78,63.47,22.49,26.27,66.14,22.31,89.22,14.52.07-.02.14-.05.2-.07,7.71-2.65,16.22-.55,21.77,5.43,10.51,11.34,32.14,26.97,45.78,8.68,13.87-18.61-.25-25.12-8.61-35.56Z"/></g></svg>